<svg width="250" height="56" viewBox="0 0 250 56" fill="none" xmlns="http://www.w3.org/2000/svg">
<path d="M20.7178 13.0346C18.4286 17.4406 16.1357 21.8512 13.3607 26.1475C11.9893 28.271 10.4928 30.3632 8.81784 32.4016C7.24284 34.3168 5.4107 36.1334 3.75356 38.0195C1.92499 40.096 0.424988 42.3046 0.178559 44.6992C0.135702 45.1315 1.20713 45.1293 1.24999 44.6992C1.46784 42.5914 2.74642 40.6202 4.31784 38.7744C5.88927 36.9286 7.77856 35.0874 9.36784 33.1923C12.75 29.1603 15.4107 24.9066 17.8107 20.6125C19.1821 18.1597 20.4678 15.6867 21.75 13.216C21.9643 12.8038 20.9286 12.6269 20.7178 13.0368V13.0346Z" fill="white"/>
<path d="M6.91427 12.264C16.8178 12.0758 26.6964 11.415 36.4428 10.295C39.1893 9.9792 41.9286 9.62528 44.6536 9.23776C45.325 9.14144 45.0428 8.49408 44.3678 8.5904C34.7857 9.9568 25.0464 10.8752 15.2464 11.3254C12.475 11.4531 9.69641 11.5405 6.91784 11.5942C6.22856 11.6077 6.22856 12.2797 6.91784 12.2662L6.91427 12.264Z" fill="white"/>
<path d="M19.975 43.9846C19.0714 43.6285 18.8607 42.8176 18.7929 42.2038C18.7143 41.496 18.7929 40.7859 19.0321 40.0915C19.4929 38.7408 20.4964 37.4461 22.0179 36.4403C22.8393 35.8982 23.7964 35.457 24.8821 35.1456C25.5071 34.9664 24.9643 34.3862 24.3429 34.5654C19.8286 35.8579 17.3393 39.2784 17.7321 42.2867C17.8429 43.1334 18.2143 44.081 19.4357 44.5626C20.0214 44.7933 20.5607 44.2131 19.975 43.9824V43.9846Z" fill="white"/>
<path d="M30.9393 39.3568C30.5714 41.1757 30.2143 43.2522 28.2607 44.7104C27.4857 45.2883 26.4464 45.799 25.2179 45.8976C23.7643 46.0141 22.425 45.4854 21.375 44.9098C20.8571 44.6275 20.0964 45.1002 20.6179 45.3846C21.5929 45.9178 22.7321 46.4038 24.0357 46.5382C25.1536 46.6525 26.2571 46.5046 27.2321 46.1462C29.4179 45.3421 30.5964 43.8166 31.2071 42.3338C31.6107 41.3571 31.8071 40.3536 32.0107 39.3568C32.0964 38.929 31.025 38.9334 30.9393 39.3568Z" fill="white"/>
<path d="M38.7893 34.4691C38.775 38.127 36.6321 41.6214 36.4357 45.2704L37.4893 45.1808C36.8714 42.4077 38.5071 39.3366 41.9035 37.4819C42.8035 36.9914 44.15 36.3485 45.3964 36.3888C46.0857 36.4112 46.0821 35.7392 45.3964 35.7168C44.1 35.6742 42.8143 36.1939 41.8178 36.6666C40.8214 37.1392 40.025 37.6656 39.3035 38.2704C37.8 39.527 36.8321 41.0547 36.4714 42.607C36.2571 43.5254 36.2535 44.4416 36.4571 45.3622C36.5428 45.7498 37.4893 45.6355 37.5107 45.2726C37.7107 41.6237 39.8535 38.1315 39.8643 34.4714C39.8643 34.039 38.7928 34.039 38.7928 34.4714L38.7893 34.4691Z" fill="white"/>
<path d="M66.4572 14.7235C61.2143 19.9897 57.1714 25.7197 54.3464 31.6691C52.9214 34.6729 51.8072 37.735 51.0107 40.8307C50.5857 42.4838 50.2143 44.1616 50.3929 45.8393C50.5357 47.1699 50.9464 48.9597 53.2679 49.4659C54.425 49.719 55.7322 49.5757 56.9 49.4189C58.1429 49.2531 59.35 48.991 60.5071 48.6573C62.8536 47.9808 64.95 46.975 66.6714 45.7722C67.1321 45.4518 66.375 44.9747 65.9143 45.2973C64.4214 46.3411 62.6607 47.2192 60.6714 47.8621C59.7214 48.1689 58.7322 48.4176 57.7036 48.6013C56.675 48.785 55.5821 48.9485 54.5143 48.9261C51.9929 48.8723 51.5964 47.0893 51.4643 45.8371C51.2929 44.2198 51.6357 42.6003 52.0464 41.0077C53.5607 35.112 56.225 29.3216 60.025 23.8448C62.1322 20.8096 64.5857 17.8707 67.3821 15.0617C67.75 14.6944 66.8214 14.3561 66.4572 14.7235Z" fill="white"/>
<path d="M48.8 37.0653C53.525 35.8086 58.5036 34.935 63.5786 34.4669C64.2571 34.4042 63.9678 33.7568 63.2928 33.8195C58.1143 34.2966 53.075 35.2061 48.2571 36.4851C47.9893 36.5568 47.9357 36.801 48.0643 36.9443C48.2214 37.119 48.5321 37.1347 48.7964 37.0653H48.8Z" fill="white"/>
<path d="M71.0214 41.0637C73.4821 40.2752 75.9036 39.3747 77.8036 38.0957C79.5821 36.8995 80.9 35.3875 81.2786 33.7568C81.475 32.9101 81.4464 32.0208 80.8643 31.2323C80.3679 30.5626 79.3393 29.9757 78.1179 29.9555C76.8286 29.9331 75.7393 30.5738 74.8571 31.0867C73.975 31.5997 73.125 32.2157 72.3964 32.8518C70.9107 34.1443 69.8179 35.6205 69.1429 37.1571C68.4214 38.7968 68.1 40.5664 68.55 42.2531C68.9607 43.792 70.2 45.1562 72.225 46.0746C74.0143 46.8855 76.225 47.264 78.3964 47.385C83.4179 47.6694 89.1893 46.6861 91.4857 43.6061C91.75 43.2499 91.9607 42.8826 92.1107 42.4995C92.275 42.0806 91.2429 41.9014 91.0786 42.3203C90.5357 43.6934 89.125 44.8806 87.2214 45.6333C85.0857 46.4778 82.5 46.7443 80.0107 46.7555C76.0786 46.7712 71.7714 45.8752 70.1714 43.4157C69.2214 41.9597 69.275 40.2819 69.6786 38.7542C70.0821 37.2266 70.8107 35.8938 71.9214 34.6013C73.0321 33.3088 74.3679 32.2336 76.0643 31.313C76.9143 30.8515 77.975 30.3542 79.0536 30.8538C80.0107 31.2973 80.3071 32.0947 80.325 32.8026C80.3679 34.487 79.1107 36.1446 77.3786 37.3968C75.4964 38.7542 73.0107 39.6771 70.4821 40.488C69.8679 40.6851 70.4107 41.2653 71.0214 41.0682V41.0637Z" fill="white"/>
<path d="M132.732 8.23872C131.761 14.3226 130.629 20.3974 129.336 26.4589C128.043 32.5203 126.611 38.4922 125.011 44.4842C124.564 46.1507 124.107 47.8173 123.639 49.4816C123.464 50.1066 123.211 50.7315 123.521 51.3587C123.768 51.8538 124.393 52.2458 125.243 51.9837C125.861 51.791 125.318 51.2109 124.704 51.4035C124.732 51.3946 124.764 51.4685 124.704 51.3856C124.654 51.3139 124.593 51.2579 124.554 51.1818C124.446 50.9734 124.414 50.745 124.439 50.5254C124.521 49.84 124.818 49.1434 125.007 48.4669C125.411 47.0198 125.804 45.5706 126.189 44.119C126.95 41.2541 127.675 38.3846 128.361 35.5107C129.75 29.7114 130.993 23.8963 132.089 18.0723C132.707 14.7974 133.275 11.5181 133.8 8.23648C133.868 7.8064 132.796 7.80864 132.729 8.23648L132.732 8.23872Z" fill="white"/>
<path d="M130.814 15.6419C134.011 13.1466 137.889 11.0029 142.325 9.41248C143.404 9.0272 144.511 8.67328 145.643 8.35744C146.718 8.05728 147.839 7.74592 148.982 7.56672C152.336 7.04256 151.046 10.4115 150.668 11.4643C149.329 15.1827 147.811 18.8765 146.246 22.5613C144.807 25.9504 143.436 29.3597 141.718 32.6995C140.114 35.8198 138.146 38.9021 135.218 41.6326C134.861 41.9664 134.486 42.2934 134.104 42.6138C133.689 42.9587 134.618 43.2947 135.029 42.952C138.3 40.2237 140.496 37.0608 142.239 33.8442C144.104 30.4102 145.511 26.88 147.004 23.3766C148.632 19.5507 150.221 15.7181 151.621 11.8563C151.954 10.9379 152.346 9.99936 152.311 9.0496C152.279 8.28576 151.979 7.31808 150.746 6.96416C149.618 6.63936 148.343 6.96416 147.264 7.21728C146.068 7.49728 144.889 7.8176 143.743 8.17376C139.039 9.63424 134.832 11.7174 131.364 14.1837C130.914 14.504 130.479 14.831 130.054 15.1626C129.629 15.4941 130.379 15.9757 130.811 15.6374L130.814 15.6419Z" fill="white"/>
<path d="M144.221 40.2483C146.007 40.647 147.679 39.8205 148.918 39.1059C150.157 38.3914 151.382 37.5917 152.286 36.671C153.039 35.9005 154.296 34.5094 152.782 33.8038C151.454 33.1834 149.418 33.5642 148.157 34.0637C143.132 36.0595 142.739 41.449 147.354 43.7606C149.843 45.0083 153.396 45.2816 156.136 44.1795C156.714 43.9466 156.179 43.3642 155.596 43.5994C153.604 44.4035 151.079 44.3834 149.029 43.6643C146.846 42.8982 145.546 41.4646 145.282 39.9258C145.018 38.3869 145.586 36.7226 147.154 35.5174C148.029 34.8454 149.289 34.2675 150.7 34.1802C151.214 34.1488 151.979 34.1488 152.318 34.4467C152.711 34.7894 152.111 35.4502 151.857 35.7728C151.132 36.7002 150.057 37.4864 148.886 38.2032C147.804 38.864 146.193 39.9773 144.511 39.5987C143.861 39.4531 143.579 40.1027 144.225 40.2461L144.221 40.2483Z" fill="white"/>
<path d="M197.586 17.3779C198.079 22.7629 195.507 27.9709 193.225 33.0982C192.054 35.7347 190.975 38.3869 190 41.0547C189.511 42.3942 189.046 43.7405 188.611 45.0867C188.446 45.5952 187.971 46.3523 188.679 46.7779C188.943 46.9392 189.311 46.9817 189.664 46.9885C190.189 46.9997 190.725 46.9638 191.246 46.9504C196.275 46.8227 201.304 46.695 206.332 46.5673C207.018 46.5494 207.021 45.8774 206.332 45.8953C202.014 46.0051 197.696 46.1149 193.375 46.2246C192.311 46.2515 191.246 46.2784 190.182 46.3053C190.007 46.3097 189.711 46.3478 189.532 46.312C189.371 46.2806 189.375 46.2448 189.379 46.1373C189.389 45.8169 189.579 45.4697 189.679 45.1561C190.107 43.8457 190.557 42.5376 191.036 41.2317C191.986 38.6333 193.029 36.0483 194.168 33.479C195.271 30.9881 196.443 28.5062 197.325 25.9795C198.307 23.1571 198.921 20.2697 198.657 17.3779C198.618 16.9478 197.546 16.9456 197.586 17.3779Z" fill="white"/>
<path d="M215.507 34.776C215.15 39.1104 214.586 43.4358 213.814 47.7501C213.736 48.1802 214.811 48.1757 214.886 47.7501C215.657 43.4381 216.221 39.1104 216.579 34.776C216.614 34.3437 215.543 34.3459 215.507 34.776Z" fill="white"/>
<path d="M217.261 29.9219C217.95 29.9219 217.95 29.2499 217.261 29.2499C216.571 29.2499 216.571 29.9219 217.261 29.9219Z" fill="white"/>
<path d="M225.007 35.2509C225.414 39.153 225.229 43.0752 224.454 46.9549H225.525C226.196 43.5859 226.879 39.7219 230.907 37.1952C231.736 36.6778 232.7 36.2275 233.786 35.9453C234.293 35.8131 234.836 35.7168 235.379 35.6675C235.921 35.6182 236.643 35.5667 237.057 35.8512C237.864 36.4022 237.671 37.4461 237.571 38.1181C237.421 39.0992 237.029 40.0579 236.654 41.0122C235.8 43.1782 235.157 45.3712 234.736 47.5866C234.654 48.0144 235.725 48.0122 235.807 47.5866C236.214 45.4317 236.857 43.2992 237.686 41.1914C238.086 40.1766 238.486 39.1619 238.643 38.1181C238.764 37.3072 238.85 36.2925 238.075 35.5824C237.3 34.8723 235.85 34.897 234.611 35.0739C233.371 35.2509 232.236 35.6339 231.239 36.1178C229.05 37.1818 227.571 38.7094 226.607 40.3178C225.336 42.439 224.9 44.7149 224.457 46.9504C224.371 47.3782 225.443 47.3738 225.529 46.9504C226.307 43.0707 226.489 39.1485 226.082 35.2464C226.036 34.8163 224.964 34.8141 225.011 35.2464L225.007 35.2509Z" fill="white"/>
<path d="M246.4 35.8467C245.95 39.6054 245.075 43.3395 243.761 47.0176C243.393 48.048 242.993 49.0739 242.557 50.0931C242.379 50.512 243.414 50.689 243.589 50.2723C245.15 46.5987 246.279 42.8557 246.979 39.079C247.179 38.0038 247.339 36.9264 247.468 35.8467C247.518 35.4144 246.446 35.4166 246.396 35.8467H246.4Z" fill="white"/>
<path d="M248.571 31.7542C249.261 31.7542 249.261 31.0822 248.571 31.0822C247.882 31.0822 247.882 31.7542 248.571 31.7542Z" fill="white"/>
</svg>
